<?xml version="1.0" encoding="utf-8"?>
<!-- Generator: Adobe Illustrator 28.3.0, SVG Export Plug-In . SVG Version: 6.00 Build 0)  -->
<svg version="1.2" baseProfile="tiny" id="g-blonde-Artboard_1-base-img" xmlns="http://www.w3.org/2000/svg" xmlns:xlink="http://www.w3.org/1999/xlink"
	 x="0px" y="0px" viewBox="0 0 1280 1024" overflow="visible" xml:space="preserve">
<g>
	<circle fill="#CCCCCC" cx="708" cy="312" r="9"/>
	<circle fill="#CCCCCC" cx="502" cy="330" r="9"/>
	<circle fill="#CCCCCC" cx="449" cy="348" r="9"/>
	<circle fill="#CCCCCC" cx="507" cy="361" r="9"/>
	<circle fill="#CCCCCC" cx="550" cy="334" r="9"/>
	<circle fill="#CCCCCC" cx="581" cy="361" r="9"/>
	<circle fill="#CCCCCC" cx="489" cy="400" r="9"/>
	<circle fill="#CCCCCC" cx="541" cy="381" r="9"/>
	<circle fill="#CCCCCC" cx="526" cy="419" r="9"/>
	<circle fill="#CCCCCC" cx="566" cy="399" r="9"/>
	<circle fill="#CCCCCC" cx="602" cy="390" r="9"/>
	<circle id="Jon_Brion_00000158716472592033172840000005831560195353083528_" fill="#CCCCCC" cx="627" cy="424" r="9"/>
	<circle fill="#CCCCCC" cx="504" cy="446" r="9"/>
	<circle id="Francis_Starlite_00000160171963698351935810000002457034675872255139_" fill="#CCCCCC" cx="572" cy="437" r="9"/>
	<circle id="Paul_McCartney_00000063609528275817436750000005812414922626409862_" fill="#CCCCCC" cx="534" cy="455" r="9"/>
	<circle fill="#CCCCCC" cx="458" cy="390" r="9"/>
	<circle fill="#CCCCCC" cx="458" cy="441" r="9"/>
	<circle id="James_Blake_00000172409132451709502760000007829387084283950002_" fill="#CCCCCC" cx="581" cy="494" r="9"/>
	<circle id="Sebastian_Akchoté_00000165208290161918591430000000640302284441675409_" fill="#CCCCCC" cx="678" cy="418" r="9"/>
	<circle id="Frank_Ocean_00000020380611522774638760000017516505173483900802_" fill="#CCCCCC" cx="634" cy="473" r="9"/>
	<circle fill="#CCCCCC" cx="428" cy="531" r="9"/>
	<circle fill="#CCCCCC" cx="434" cy="485" r="9"/>
	<circle fill="#CCCCCC" cx="471" cy="534" r="9"/>
	<circle fill="#CCCCCC" cx="480" cy="485" r="9"/>
	<circle id="John_Lennon_00000057828159662043832730000015678519901318193571_" fill="#CCCCCC" cx="543" cy="508" r="9"/>
	<circle fill="#CCCCCC" cx="523" cy="540" r="9"/>
	<circle fill="#CCCCCC" cx="478" cy="580" r="9"/>
	<circle fill="#CCCCCC" cx="517" cy="576" r="9"/>
	<circle fill="#CCCCCC" cx="517" cy="603" r="9"/>
	<circle fill="#CCCCCC" cx="508" cy="504" r="9"/>
	<circle id="Michael_Uzowuru_00000017492339244963552490000004819122768202830976_" fill="#CCCCCC" cx="605" cy="571" r="9"/>
	<circle fill="#CCCCCC" cx="605" cy="598" r="9"/>
	<circle id="Joe_Thornalley_00000178184888829472841720000018385892571199746967_" fill="#CCCCCC" cx="691" cy="525" r="9"/>
	<circle fill="#CCCCCC" cx="559" cy="626" r="9"/>
	<circle id="Pharrell_Williams_00000183960384818072081990000011777739814412869557_" fill="#CCCCCC" cx="581" cy="535" r="9"/>
	<circle fill="#CCCCCC" cx="487" cy="650" r="9"/>
	<circle fill="#CCCCCC" cx="557" cy="567" r="9"/>
	<circle fill="#CCCCCC" cx="590" cy="660" r="9"/>
	<circle fill="#CCCCCC" cx="620" cy="642" r="9"/>
	<circle fill="#CCCCCC" cx="635" cy="678" r="9"/>
	<circle fill="#CCCCCC" cx="640" cy="357" r="9"/>
	<circle fill="#CCCCCC" cx="689" cy="343" r="9"/>
	<circle fill="#CCCCCC" cx="657" cy="390" r="9"/>
	<circle fill="#CCCCCC" cx="614" cy="321" r="9"/>
	<circle fill="#CCCCCC" cx="666" cy="312" r="9"/>
	<circle fill="#CCCCCC" cx="589" cy="303" r="9"/>
	<circle fill="#CCCCCC" cx="738" cy="339" r="9"/>
	<circle fill="#CCCCCC" cx="640" cy="285" r="9"/>
	<circle fill="#CCCCCC" cx="764" cy="381" r="9"/>
	<circle fill="#CCCCCC" cx="747" cy="294" r="9"/>
	<circle fill="#CCCCCC" cx="794" cy="343" r="9"/>
	<circle fill="#CCCCCC" cx="808" cy="390" r="9"/>
	<circle fill="#CCCCCC" cx="808" cy="437" r="9"/>
	<circle fill="#CCCCCC" cx="838" cy="419" r="9"/>
	<circle fill="#CCCCCC" cx="838" cy="446" r="9"/>
	<circle id="Alex_G_00000095320313100460478300000012712091635833671590_" fill="#CCCCCC" cx="716" cy="427" r="9"/>
	<circle fill="#CCCCCC" cx="707" cy="381" r="9"/>
	<circle fill="#CCCCCC" cx="746" cy="436" r="9"/>
	<circle id="Buddy_Ross_00000023987748688371747530000017111254414687156135_" fill="#CCCCCC" cx="599" cy="460" r="9"/>
	<circle fill="#CCCCCC" cx="829" cy="485" r="9"/>
	<circle id="Om_x27_Mas_Keith_00000041280804530152137580000010894682670789792157_" fill="#CCCCCC" cx="701" cy="464" r="9"/>
	<circle id="Malay_Ho_00000113342600886189667990000010776313105205997239_" fill="#CCCCCC" cx="669" cy="492" r="9"/>
	<circle id="Christophe_Chassol_00000047763188570836428140000018153021527415358352_" fill="#CCCCCC" cx="647" cy="558" r="9"/>
	<circle fill="#CCCCCC" cx="669" cy="594" r="9"/>
	<circle id="Rostam_Batmanglij_00000106118558704019227920000008846845792994619290_" fill="#CCCCCC" cx="629" cy="513" r="9"/>
	<circle id="André_3000_00000078748323944591090430000008227072687967690631_" fill="#CCCCCC" cx="729" cy="490" r="9"/>
	<circle fill="#CCCCCC" cx="727" cy="562" r="9"/>
	<circle fill="#CCCCCC" cx="710" cy="612" r="9"/>
	<circle fill="#CCCCCC" cx="785" cy="490" r="9"/>
	<circle fill="#CCCCCC" cx="746" cy="531" r="9"/>
	<circle fill="#CCCCCC" cx="799" cy="549" r="9"/>
	<circle fill="#CCCCCC" cx="764" cy="464" r="9"/>
	<circle fill="#CCCCCC" cx="808" cy="608" r="9"/>
	<circle fill="#CCCCCC" cx="764" cy="598" r="9"/>
	
		<circle id="Tyler_x2C__the_Creator_00000107555856576851493860000007614987976664970148_" fill="#CCCCCC" cx="687" cy="565" r="9"/>
	<circle fill="#CCCCCC" cx="640" cy="608" r="9"/>
	<circle fill="#CCCCCC" cx="657" cy="642" r="9"/>
	<circle fill="#CCCCCC" cx="747" cy="641" r="9"/>
	<circle fill="#CCCCCC" cx="694" cy="655" r="9"/>
	<circle fill="#CCCCCC" cx="767" cy="558" r="9"/>
	<circle fill="#CCCCCC" cx="543" cy="287" r="9"/>
	<circle fill="#CCCCCC" cx="532" cy="655" r="9"/>
</g>
<style>
#g-blonde-Artboard_1-base-img rect, #g-blonde-Artboard_1-base-img circle, #g-blonde-Artboard_1-base-img path, #g-blonde-Artboard_1-base-img line, #g-blonde-Artboard_1-base-img polyline, #g-blonde-Artboard_1-base-img polygon { vector-effect: non-scaling-stroke; }
</style>
</svg>

