<?xml version="1.0" encoding="utf-8"?>
<!-- Generator: Adobe Illustrator 28.3.0, SVG Export Plug-In . SVG Version: 6.00 Build 0)  -->
<svg version="1.2" baseProfile="tiny" id="g-blonde-Artboard_1-interactions-img" xmlns="http://www.w3.org/2000/svg" xmlns:xlink="http://www.w3.org/1999/xlink"
	 x="0px" y="0px" viewBox="0 0 780 780" overflow="visible" xml:space="preserve">
<g>
	<g id="spotify_00000155140323260931175270000008947116637574620307_">
		<circle id="Paul_McCartney_00000101103495595486345060000015903151922341331117_" fill="#1DB954" cx="284" cy="333" r="9"/>
		<circle id="Frank_Ocean_00000155121159535097399170000006204257939342225547_" fill="#1DB954" cx="384" cy="351" r="9"/>
		<circle id="John_Lennon_00000036218821918691280950000003094049239981529268_" fill="#1DB954" cx="293" cy="386" r="9"/>
		<circle id="Michael_Uzowuru_00000125567975430764451810000018139970414763257740_" fill="#1DB954" cx="355" cy="449" r="9"/>
		<circle id="Pharrell_Williams_00000021076959586913541080000006093768987666100920_" fill="#1DB954" cx="331" cy="413" r="9"/>
		<circle id="Buddy_Ross_00000132797618534672222660000007370776565785916301_" fill="#1DB954" cx="349" cy="338" r="9"/>
		<circle id="Rostam_Batmanglij_00000173862267264174781760000017188256836172490407_" fill="#1DB954" cx="379" cy="391" r="9"/>
	</g>
	<g id="base_00000042734716664568896960000012215504685734122886_">
		<circle fill="#CCCCCC" cx="458" cy="190" r="9"/>
		<circle fill="#CCCCCC" cx="252" cy="208" r="9"/>
		<circle fill="#CCCCCC" cx="199" cy="226" r="9"/>
		<circle fill="#CCCCCC" cx="257" cy="239" r="9"/>
		<circle fill="#CCCCCC" cx="300" cy="212" r="9"/>
		<circle fill="#CCCCCC" cx="331" cy="239" r="9"/>
		<circle fill="#CCCCCC" cx="239" cy="278" r="9"/>
		<circle fill="#CCCCCC" cx="291" cy="259" r="9"/>
		<circle fill="#CCCCCC" cx="276" cy="297" r="9"/>
		<circle id="Kanye_West_00000041256584835065906890000003593961777488314013_" fill="#CCCCCC" cx="316" cy="277" r="9"/>
		<circle fill="#CCCCCC" cx="352" cy="268" r="9"/>
		<circle id="Jon_Brion_00000154412005568960613960000003321606011957376166_" fill="#CCCCCC" cx="377" cy="302" r="9"/>
		<circle fill="#CCCCCC" cx="254" cy="324" r="9"/>
		<circle id="Francis_Starlite_00000088103371774408543170000004973361423909819306_" fill="#CCCCCC" cx="322" cy="315" r="9"/>
		<circle fill="#CCCCCC" cx="208" cy="268" r="9"/>
		<circle fill="#CCCCCC" cx="208" cy="319" r="9"/>
		<circle id="James_Blake_00000098901706462513639380000001313879156456370306_" fill="#CCCCCC" cx="331" cy="372" r="9"/>
		<circle id="Sebastian_Akchoté_00000165192874927321335780000000391505468074608017_" fill="#CCCCCC" cx="428" cy="296" r="9"/>
		<circle fill="#CCCCCC" cx="178" cy="409" r="9"/>
		<circle fill="#CCCCCC" cx="184" cy="363" r="9"/>
		<circle fill="#CCCCCC" cx="221" cy="412" r="9"/>
		<circle fill="#CCCCCC" cx="230" cy="363" r="9"/>
		<circle fill="#CCCCCC" cx="273" cy="418" r="9"/>
		<circle fill="#CCCCCC" cx="228" cy="458" r="9"/>
		<circle fill="#CCCCCC" cx="267" cy="454" r="9"/>
		<circle fill="#CCCCCC" cx="267" cy="481" r="9"/>
		<circle fill="#CCCCCC" cx="258" cy="382" r="9"/>
		<circle fill="#CCCCCC" cx="355" cy="476" r="9"/>
		<circle id="Joe_Thornalley_00000162344691738827190230000011458915335999935927_" fill="#CCCCCC" cx="441" cy="403" r="9"/>
		<circle fill="#CCCCCC" cx="309" cy="504" r="9"/>
		<circle fill="#CCCCCC" cx="237" cy="528" r="9"/>
		<circle id="Beyoncé_00000025430544886479464350000008620923433932820159_" fill="#CCCCCC" cx="307" cy="445" r="9"/>
		<circle fill="#CCCCCC" cx="340" cy="538" r="9"/>
		<circle fill="#CCCCCC" cx="370" cy="520" r="9"/>
		<circle fill="#CCCCCC" cx="385" cy="556" r="9"/>
		<circle fill="#CCCCCC" cx="390" cy="235" r="9"/>
		<circle fill="#CCCCCC" cx="439" cy="221" r="9"/>
		<circle fill="#CCCCCC" cx="407" cy="268" r="9"/>
		<circle fill="#CCCCCC" cx="364" cy="199" r="9"/>
		<circle fill="#CCCCCC" cx="416" cy="190" r="9"/>
		<circle fill="#CCCCCC" cx="339" cy="181" r="9"/>
		<circle fill="#CCCCCC" cx="488" cy="217" r="9"/>
		<circle fill="#CCCCCC" cx="390" cy="163" r="9"/>
		<circle fill="#CCCCCC" cx="514" cy="259" r="9"/>
		<circle fill="#CCCCCC" cx="497" cy="172" r="9"/>
		<circle fill="#CCCCCC" cx="544" cy="221" r="9"/>
		<circle fill="#CCCCCC" cx="558" cy="268" r="9"/>
		<circle fill="#CCCCCC" cx="558" cy="315" r="9"/>
		<circle fill="#CCCCCC" cx="588" cy="297" r="9"/>
		<circle fill="#CCCCCC" cx="588" cy="324" r="9"/>
		<circle id="Alex_G_00000080185494536731560650000003297883374067254196_" fill="#CCCCCC" cx="466" cy="305" r="9"/>
		<circle fill="#CCCCCC" cx="457" cy="259" r="9"/>
		<circle fill="#CCCCCC" cx="496" cy="314" r="9"/>
		<circle fill="#CCCCCC" cx="579" cy="363" r="9"/>
		<circle id="Om_x27_Mas_Keith_00000121997430151573060490000001590337696991002246_" fill="#CCCCCC" cx="451" cy="342" r="9"/>
		<circle id="Malay_Ho_00000010298805478168474180000005101636638873252737_" fill="#CCCCCC" cx="419" cy="370" r="9"/>
		<circle id="Christophe_Chassol_00000010304696048136844090000004524323588805136522_" fill="#CCCCCC" cx="397" cy="436" r="9"/>
		<circle fill="#CCCCCC" cx="419" cy="472" r="9"/>
		<circle id="André_3000_00000050649341733348298570000017876155232970781098_" fill="#CCCCCC" cx="479" cy="368" r="9"/>
		<circle fill="#CCCCCC" cx="477" cy="440" r="9"/>
		<circle fill="#CCCCCC" cx="460" cy="490" r="9"/>
		<circle fill="#CCCCCC" cx="535" cy="368" r="9"/>
		<circle fill="#CCCCCC" cx="496" cy="409" r="9"/>
		<circle fill="#CCCCCC" cx="549" cy="427" r="9"/>
		<circle fill="#CCCCCC" cx="514" cy="342" r="9"/>
		<circle fill="#CCCCCC" cx="558" cy="486" r="9"/>
		<circle fill="#CCCCCC" cx="514" cy="476" r="9"/>
		
			<circle id="Tyler_x2C__the_Creator_00000070076465320461056060000008741719857748335766_" fill="#CCCCCC" cx="437" cy="443" r="9"/>
		<circle fill="#CCCCCC" cx="390" cy="486" r="9"/>
		<circle fill="#CCCCCC" cx="407" cy="520" r="9"/>
		<circle fill="#CCCCCC" cx="497" cy="519" r="9"/>
		<circle fill="#CCCCCC" cx="444" cy="533" r="9"/>
		<circle fill="#CCCCCC" cx="517" cy="436" r="9"/>
		<circle fill="#CCCCCC" cx="293" cy="165" r="9"/>
		<circle fill="#CCCCCC" cx="282" cy="533" r="9"/>
	</g>
	<g id="alist_00000098191317748786220130000015335869328708585659_">
		<g>
			<path fill="none" stroke="#000000" stroke-width="2" stroke-miterlimit="10" d="M447.17,436.75
				c27.674-15.54,107.775-50.917,189.83,3.25"/>
			<g>
				<polygon points="455.86,440.279 449.341,435.56 448.212,427.593 437,443 				"/>
			</g>
		</g>
		<g>
			<path fill="none" stroke="#000000" stroke-width="2" stroke-miterlimit="10" d="M160,280c0,0,70.579-42.347,146.354-7.403"/>
			<g>
				<polygon points="297.982,276.834 304.095,271.601 304.572,263.568 317,278.012 				"/>
			</g>
		</g>
		<g>
			<path fill="none" stroke="#000000" stroke-width="2" stroke-miterlimit="10" d="M184,444.8c0,0,53.423-20.821,111.625-4.644"/>
			<g>
				<polygon points="288.036,445.643 293.241,439.506 292.437,431.5 307,443.788 				"/>
			</g>
		</g>
		<g>
			<path fill="none" stroke="#000000" stroke-width="2" stroke-miterlimit="10" d="M489.153,361.723
				c20.118-10.711,68.621-28.458,131.847,3.214"/>
			<g>
				<polygon points="497.862,365.295 491.348,360.571 490.226,352.603 479,368 				"/>
			</g>
		</g>
	</g>
</g>
<style>
#g-blonde-Artboard_1-interactions-img rect, #g-blonde-Artboard_1-interactions-img circle, #g-blonde-Artboard_1-interactions-img path, #g-blonde-Artboard_1-interactions-img line, #g-blonde-Artboard_1-interactions-img polyline, #g-blonde-Artboard_1-interactions-img polygon { vector-effect: non-scaling-stroke; }
</style>
</svg>

