<?xml version="1.0" encoding="utf-8"?>
<!-- Generator: Adobe Illustrator 28.3.0, SVG Export Plug-In . SVG Version: 6.00 Build 0)  -->
<svg version="1.2" baseProfile="tiny" id="g-blonde-Artboard_1-interactions-img" xmlns="http://www.w3.org/2000/svg" xmlns:xlink="http://www.w3.org/1999/xlink"
	 x="0px" y="0px" viewBox="0 0 780 780" overflow="visible" xml:space="preserve">
<g>
	<g id="spotify_00000114768445984874953240000002901710869044456847_">
		<circle id="Paul_McCartney_00000166651070903511932490000016901854084617721477_" fill="#1DB954" cx="284" cy="333" r="9"/>
		<circle id="Frank_Ocean_00000001623855762253317320000010395626524990123195_" fill="#1DB954" cx="384" cy="351" r="9"/>
		<circle id="John_Lennon_00000010284475613240587180000001674061251859683727_" fill="#1DB954" cx="293" cy="386" r="9"/>
		<circle id="Michael_Uzowuru_00000096769806815964565220000015444559669214693760_" fill="#1DB954" cx="355" cy="449" r="9"/>
		<circle id="Pharrell_Williams_00000124866054051492384970000013396382416155106986_" fill="#1DB954" cx="331" cy="413" r="9"/>
		<circle id="Buddy_Ross_00000013910847432902223360000003975010341046275498_" fill="#1DB954" cx="349" cy="338" r="9"/>
		<circle id="Rostam_Batmanglij_00000181797068203069025830000011849762714951247758_" fill="#1DB954" cx="379" cy="391" r="9"/>
	</g>
	<g id="base_00000125598589144421873530000003100691538492497324_">
		<circle fill="#CCCCCC" cx="458" cy="190" r="9"/>
		<circle fill="#CCCCCC" cx="252" cy="208" r="9"/>
		<circle fill="#CCCCCC" cx="199" cy="226" r="9"/>
		<circle fill="#CCCCCC" cx="257" cy="239" r="9"/>
		<circle fill="#CCCCCC" cx="300" cy="212" r="9"/>
		<circle fill="#CCCCCC" cx="331" cy="239" r="9"/>
		<circle fill="#CCCCCC" cx="239" cy="278" r="9"/>
		<circle fill="#CCCCCC" cx="291" cy="259" r="9"/>
		<circle fill="#CCCCCC" cx="276" cy="297" r="9"/>
		<circle id="Kanye_West_00000026127065230132598000000010949174644421740692_" fill="#CCCCCC" cx="316" cy="277" r="9"/>
		<circle fill="#CCCCCC" cx="352" cy="268" r="9"/>
		<circle id="Jon_Brion_00000011733739786698416810000007782022139949724034_" fill="#CCCCCC" cx="377" cy="302" r="9"/>
		<circle fill="#CCCCCC" cx="254" cy="324" r="9"/>
		<circle id="Francis_Starlite_00000067235335111716710150000011725318186045859993_" fill="#CCCCCC" cx="322" cy="315" r="9"/>
		<circle fill="#CCCCCC" cx="208" cy="268" r="9"/>
		<circle fill="#CCCCCC" cx="208" cy="319" r="9"/>
		<circle id="James_Blake_00000028319322065273712600000001796132868338432913_" fill="#CCCCCC" cx="331" cy="372" r="9"/>
		<circle id="Sebastian_Akchoté_00000129904134527515485430000014539872903564874678_" fill="#CCCCCC" cx="428" cy="296" r="9"/>
		<circle fill="#CCCCCC" cx="178" cy="409" r="9"/>
		<circle fill="#CCCCCC" cx="184" cy="363" r="9"/>
		<circle fill="#CCCCCC" cx="221" cy="412" r="9"/>
		<circle fill="#CCCCCC" cx="230" cy="363" r="9"/>
		<circle fill="#CCCCCC" cx="273" cy="418" r="9"/>
		<circle fill="#CCCCCC" cx="228" cy="458" r="9"/>
		<circle fill="#CCCCCC" cx="267" cy="454" r="9"/>
		<circle fill="#CCCCCC" cx="267" cy="481" r="9"/>
		<circle fill="#CCCCCC" cx="258" cy="382" r="9"/>
		<circle fill="#CCCCCC" cx="355" cy="476" r="9"/>
		<circle id="Joe_Thornalley_00000038374610646357133130000018247778215697641105_" fill="#CCCCCC" cx="441" cy="403" r="9"/>
		<circle fill="#CCCCCC" cx="309" cy="504" r="9"/>
		<circle fill="#CCCCCC" cx="237" cy="528" r="9"/>
		<circle id="Beyoncé_00000054949051946707500770000009623699352980996505_" fill="#CCCCCC" cx="307" cy="445" r="9"/>
		<circle fill="#CCCCCC" cx="340" cy="538" r="9"/>
		<circle fill="#CCCCCC" cx="370" cy="520" r="9"/>
		<circle fill="#CCCCCC" cx="385" cy="556" r="9"/>
		<circle fill="#CCCCCC" cx="390" cy="235" r="9"/>
		<circle fill="#CCCCCC" cx="439" cy="221" r="9"/>
		<circle fill="#CCCCCC" cx="407" cy="268" r="9"/>
		<circle fill="#CCCCCC" cx="364" cy="199" r="9"/>
		<circle fill="#CCCCCC" cx="416" cy="190" r="9"/>
		<circle fill="#CCCCCC" cx="339" cy="181" r="9"/>
		<circle fill="#CCCCCC" cx="488" cy="217" r="9"/>
		<circle fill="#CCCCCC" cx="390" cy="163" r="9"/>
		<circle fill="#CCCCCC" cx="514" cy="259" r="9"/>
		<circle fill="#CCCCCC" cx="497" cy="172" r="9"/>
		<circle fill="#CCCCCC" cx="544" cy="221" r="9"/>
		<circle fill="#CCCCCC" cx="558" cy="268" r="9"/>
		<circle fill="#CCCCCC" cx="558" cy="315" r="9"/>
		<circle fill="#CCCCCC" cx="588" cy="297" r="9"/>
		<circle fill="#CCCCCC" cx="588" cy="324" r="9"/>
		<circle id="Alex_G_00000032615203782838404790000003913756885952490943_" fill="#CCCCCC" cx="466" cy="305" r="9"/>
		<circle fill="#CCCCCC" cx="457" cy="259" r="9"/>
		<circle fill="#CCCCCC" cx="496" cy="314" r="9"/>
		<circle fill="#CCCCCC" cx="579" cy="363" r="9"/>
		<circle id="Om_x27_Mas_Keith_00000005268599444205872660000011587873445293375413_" fill="#CCCCCC" cx="451" cy="342" r="9"/>
		<circle id="Malay_Ho_00000049900517089547014250000011649174306651411876_" fill="#CCCCCC" cx="419" cy="370" r="9"/>
		<circle id="Christophe_Chassol_00000160159125318018751100000013077778301151169961_" fill="#CCCCCC" cx="397" cy="436" r="9"/>
		<circle fill="#CCCCCC" cx="419" cy="472" r="9"/>
		<circle id="André_3000_00000089565424860852948420000005962117413303484327_" fill="#CCCCCC" cx="479" cy="368" r="9"/>
		<circle fill="#CCCCCC" cx="477" cy="440" r="9"/>
		<circle fill="#CCCCCC" cx="460" cy="490" r="9"/>
		<circle fill="#CCCCCC" cx="535" cy="368" r="9"/>
		<circle fill="#CCCCCC" cx="496" cy="409" r="9"/>
		<circle fill="#CCCCCC" cx="549" cy="427" r="9"/>
		<circle fill="#CCCCCC" cx="514" cy="342" r="9"/>
		<circle fill="#CCCCCC" cx="558" cy="486" r="9"/>
		<circle fill="#CCCCCC" cx="514" cy="476" r="9"/>
		
			<circle id="Tyler_x2C__the_Creator_00000182503903260784768010000000563606823641789356_" fill="#CCCCCC" cx="437" cy="443" r="9"/>
		<circle fill="#CCCCCC" cx="390" cy="486" r="9"/>
		<circle fill="#CCCCCC" cx="407" cy="520" r="9"/>
		<circle fill="#CCCCCC" cx="497" cy="519" r="9"/>
		<circle fill="#CCCCCC" cx="444" cy="533" r="9"/>
		<circle fill="#CCCCCC" cx="517" cy="436" r="9"/>
		<circle fill="#CCCCCC" cx="293" cy="165" r="9"/>
		<circle fill="#CCCCCC" cx="282" cy="533" r="9"/>
	</g>
	<g id="alist_00000023971130381894914920000000154923007696104375_">
		<g>
			<path fill="none" stroke="#000000" stroke-width="2" stroke-miterlimit="10" d="M447.17,436.75
				c27.674-15.54,107.775-50.917,189.83,3.25"/>
			<g>
				<polygon points="455.86,440.279 449.341,435.56 448.212,427.593 437,443 				"/>
			</g>
		</g>
		<g>
			<path fill="none" stroke="#000000" stroke-width="2" stroke-miterlimit="10" d="M160,280c0,0,70.579-42.347,146.354-7.403"/>
			<g>
				<polygon points="297.982,276.834 304.095,271.601 304.572,263.568 317,278.012 				"/>
			</g>
		</g>
		<g>
			<path fill="none" stroke="#000000" stroke-width="2" stroke-miterlimit="10" d="M184,444.8c0,0,53.423-20.821,111.625-4.644"/>
			<g>
				<polygon points="288.036,445.643 293.241,439.506 292.437,431.5 307,443.788 				"/>
			</g>
		</g>
		<g>
			<path fill="none" stroke="#000000" stroke-width="2" stroke-miterlimit="10" d="M489.153,361.723
				c20.118-10.711,68.621-28.458,131.847,3.214"/>
			<g>
				<polygon points="497.862,365.295 491.348,360.571 490.226,352.603 479,368 				"/>
			</g>
		</g>
	</g>
</g>
<style>
#g-blonde-Artboard_1-interactions-img rect, #g-blonde-Artboard_1-interactions-img circle, #g-blonde-Artboard_1-interactions-img path, #g-blonde-Artboard_1-interactions-img line, #g-blonde-Artboard_1-interactions-img polyline, #g-blonde-Artboard_1-interactions-img polygon { vector-effect: non-scaling-stroke; }
</style>
</svg>

