<?xml version="1.0" encoding="utf-8"?>
<!-- Generator: Adobe Illustrator 28.3.0, SVG Export Plug-In . SVG Version: 6.00 Build 0)  -->
<svg version="1.2" baseProfile="tiny" id="g-blonde-Artboard_1-interactions-img" xmlns="http://www.w3.org/2000/svg" xmlns:xlink="http://www.w3.org/1999/xlink"
	 x="0px" y="0px" viewBox="0 0 780 780" overflow="visible" xml:space="preserve">
<g>
	<g id="spotify_00000013895065244280577280000008349909230542307518_">
		<circle id="Paul_McCartney_00000091725920464344092320000016838512018304871611_" fill="#1DB954" cx="284" cy="333" r="9"/>
		<circle id="Frank_Ocean_00000068652025122349520290000001636470668690823589_" fill="#1DB954" cx="384" cy="351" r="9"/>
		<circle id="John_Lennon_00000099628602440165761270000014038670723853474951_" fill="#1DB954" cx="293" cy="386" r="9"/>
		<circle id="Michael_Uzowuru_00000034809728958049742310000004348540830116958881_" fill="#1DB954" cx="377" cy="400" r="9"/>
		<circle id="Pharrell_Williams_00000140733254512535855860000014072221326082274493_" fill="#1DB954" cx="331" cy="413" r="9"/>
		<circle id="Buddy_Ross_00000066480568626175445730000014912669495988616071_" fill="#1DB954" cx="349" cy="338" r="9"/>
		<circle id="Rostam_Batmanglij_00000013915230845546926320000003622088629365745547_" fill="#1DB954" cx="355" cy="445" r="9"/>
	</g>
	<g id="base_00000054981268329971223840000007480976747036961455_">
		<circle fill="#CCCCCC" cx="458" cy="190" r="9"/>
		<circle fill="#CCCCCC" cx="252" cy="208" r="9"/>
		<circle fill="#CCCCCC" cx="199" cy="226" r="9"/>
		<circle fill="#CCCCCC" cx="257" cy="239" r="9"/>
		<circle fill="#CCCCCC" cx="300" cy="212" r="9"/>
		<circle id="Amber_Coffmann_00000156578752319146692330000015191570214341376387_" fill="#CCCCCC" cx="331" cy="239" r="9"/>
		<circle fill="#CCCCCC" cx="239" cy="278" r="9"/>
		<circle fill="#CCCCCC" cx="291" cy="259" r="9"/>
		<circle fill="#CCCCCC" cx="276" cy="297" r="9"/>
		<circle id="Kanye_West_00000030458622974147986120000008691565055156944281_" fill="#CCCCCC" cx="316" cy="277" r="9"/>
		<circle fill="#CCCCCC" cx="352" cy="268" r="9"/>
		<circle id="Jon_Brion_00000056389653162766631550000011053654754346178731_" fill="#CCCCCC" cx="377" cy="302" r="9"/>
		<circle fill="#CCCCCC" cx="254" cy="324" r="9"/>
		<circle id="Francis_Starlite_00000113313471474484899310000000348233491664612029_" fill="#CCCCCC" cx="322" cy="315" r="9"/>
		<circle fill="#CCCCCC" cx="208" cy="268" r="9"/>
		<circle fill="#CCCCCC" cx="208" cy="319" r="9"/>
		<circle id="James_Blake_00000088853715013036459550000005382834553456348314_" fill="#CCCCCC" cx="331" cy="372" r="9"/>
		<circle id="Sebastian_Akchoté_00000055706355546134481130000005229182299928705713_" fill="#CCCCCC" cx="428" cy="296" r="9"/>
		<circle fill="#CCCCCC" cx="178" cy="409" r="9"/>
		<circle fill="#CCCCCC" cx="184" cy="363" r="9"/>
		<circle fill="#CCCCCC" cx="221" cy="412" r="9"/>
		<circle fill="#CCCCCC" cx="230" cy="363" r="9"/>
		<circle fill="#CCCCCC" cx="273" cy="418" r="9"/>
		<circle fill="#CCCCCC" cx="228" cy="458" r="9"/>
		<circle fill="#CCCCCC" cx="267" cy="454" r="9"/>
		<circle fill="#CCCCCC" cx="267" cy="481" r="9"/>
		<circle fill="#CCCCCC" cx="258" cy="382" r="9"/>
		<circle fill="#CCCCCC" cx="355" cy="476" r="9"/>
		<circle id="Joe_Thornalley_00000178920406922112430990000010108274657094058909_" fill="#CCCCCC" cx="441" cy="403" r="9"/>
		<circle fill="#CCCCCC" cx="309" cy="504" r="9"/>
		<circle fill="#CCCCCC" cx="237" cy="528" r="9"/>
		<circle id="Beyoncé_00000053542486959625750660000000198659107180647061_" fill="#CCCCCC" cx="307" cy="445" r="9"/>
		<circle fill="#CCCCCC" cx="340" cy="538" r="9"/>
		<circle fill="#CCCCCC" cx="370" cy="520" r="9"/>
		<circle fill="#CCCCCC" cx="385" cy="556" r="9"/>
		<circle fill="#CCCCCC" cx="390" cy="235" r="9"/>
		<circle fill="#CCCCCC" cx="439" cy="221" r="9"/>
		<circle fill="#CCCCCC" cx="407" cy="268" r="9"/>
		<circle fill="#CCCCCC" cx="364" cy="199" r="9"/>
		<circle fill="#CCCCCC" cx="416" cy="190" r="9"/>
		<circle fill="#CCCCCC" cx="339" cy="181" r="9"/>
		<circle id="Stevie_Wonder_00000009592404807135523850000006730318771821726142_" fill="#CCCCCC" cx="488" cy="217" r="9"/>
		<circle fill="#CCCCCC" cx="390" cy="163" r="9"/>
		<circle fill="#CCCCCC" cx="514" cy="259" r="9"/>
		<circle fill="#CCCCCC" cx="497" cy="172" r="9"/>
		<circle fill="#CCCCCC" cx="544" cy="221" r="9"/>
		<circle fill="#CCCCCC" cx="558" cy="268" r="9"/>
		<circle fill="#CCCCCC" cx="558" cy="315" r="9"/>
		<circle fill="#CCCCCC" cx="588" cy="297" r="9"/>
		<circle fill="#CCCCCC" cx="588" cy="324" r="9"/>
		<circle id="Alex_G_00000113337363452306494960000017709669498693515699_" fill="#CCCCCC" cx="466" cy="305" r="9"/>
		<circle fill="#CCCCCC" cx="457" cy="259" r="9"/>
		<circle fill="#CCCCCC" cx="496" cy="314" r="9"/>
		<circle fill="#CCCCCC" cx="579" cy="363" r="9"/>
		<circle id="Om_x27_Mas_Keith_00000142882941451359147440000014382744767734650262_" fill="#CCCCCC" cx="451" cy="342" r="9"/>
		<circle id="Malay_Ho_00000178206854424510395020000005904686824441393830_" fill="#CCCCCC" cx="419" cy="370" r="9"/>
		<circle id="Christophe_Chassol_00000165217211929429537180000005046323456108529041_" fill="#CCCCCC" cx="397" cy="436" r="9"/>
		<circle fill="#CCCCCC" cx="419" cy="472" r="9"/>
		<circle id="André_3000_00000159455708696221038170000016671674368242251667_" fill="#CCCCCC" cx="479" cy="368" r="9"/>
		<circle fill="#CCCCCC" cx="477" cy="440" r="9"/>
		<circle fill="#CCCCCC" cx="460" cy="490" r="9"/>
		<circle fill="#CCCCCC" cx="535" cy="368" r="9"/>
		<circle fill="#CCCCCC" cx="496" cy="409" r="9"/>
		<circle fill="#CCCCCC" cx="549" cy="427" r="9"/>
		<circle fill="#CCCCCC" cx="514" cy="342" r="9"/>
		<circle fill="#CCCCCC" cx="558" cy="486" r="9"/>
		<circle fill="#CCCCCC" cx="514" cy="476" r="9"/>
		
			<circle id="Tyler_x2C__the_Creator_00000088100649245714224870000005310325317875668129_" fill="#CCCCCC" cx="437" cy="443" r="9"/>
		<circle fill="#CCCCCC" cx="390" cy="486" r="9"/>
		<circle fill="#CCCCCC" cx="407" cy="520" r="9"/>
		<circle fill="#CCCCCC" cx="497" cy="519" r="9"/>
		<circle fill="#CCCCCC" cx="444" cy="533" r="9"/>
		<circle fill="#CCCCCC" cx="517" cy="436" r="9"/>
		<circle fill="#CCCCCC" cx="293" cy="165" r="9"/>
		<circle fill="#CCCCCC" cx="282" cy="533" r="9"/>
	</g>
	<g id="alist_00000121980928475354516870000016216965826285560506_">
		<g>
			<path fill="none" stroke="#000000" stroke-width="2" stroke-miterlimit="10" d="M447.17,436.75
				c27.674-15.54,107.775-50.917,189.83,3.25"/>
			<g>
				<polygon points="455.86,440.279 449.341,435.56 448.212,427.593 437,443 				"/>
			</g>
		</g>
		<g>
			<path fill="none" stroke="#000000" stroke-width="2" stroke-miterlimit="10" d="M160,280c0,0,70.579-42.347,146.354-7.403"/>
			<g>
				<polygon points="297.982,276.834 304.095,271.601 304.572,263.568 317,278.012 				"/>
			</g>
		</g>
		<g>
			<path fill="none" stroke="#000000" stroke-width="2" stroke-miterlimit="10" d="M184,444.8c0,0,53.423-20.821,111.625-4.644"/>
			<g>
				<polygon points="288.036,445.643 293.241,439.506 292.437,431.5 307,443.788 				"/>
			</g>
		</g>
		<g>
			<path fill="none" stroke="#000000" stroke-width="2" stroke-miterlimit="10" d="M489.153,361.723
				c20.118-10.711,68.621-28.458,131.847,3.214"/>
			<g>
				<polygon points="497.862,365.295 491.348,360.571 490.226,352.603 479,368 				"/>
			</g>
		</g>
	</g>
	<g id="alt_00000044167169124495030940000006237881106429256361_">
		<g>
			<path fill="none" stroke="#000000" stroke-width="2" stroke-miterlimit="10" d="M452.602,398.611
				c29.364-6.403,110.634-19.854,199.398,2.807"/>
			<g>
				<polygon points="459.782,404.629 455.031,398.135 456.407,390.206 441,401.418 				"/>
			</g>
		</g>
		<g>
			<path fill="none" stroke="#000000" stroke-width="2" stroke-miterlimit="10" d="M319.912,367.978
				c-26.929-9.5-100.669-28.401-196.432,5.022"/>
			<g>
				<polygon points="317.328,359.13 317.572,367.173 311.952,372.932 331,372.403 				"/>
			</g>
		</g>
		<g>
			<path fill="none" stroke="#000000" stroke-width="2" stroke-miterlimit="10" d="M322.912,234.978
				c-26.929-9.5-100.669-28.401-196.432,5.022"/>
			<g>
				<polygon points="320.328,226.13 320.572,234.173 314.952,239.932 334,239.403 				"/>
			</g>
		</g>
		<g>
			<path fill="none" stroke="#000000" stroke-width="2" stroke-miterlimit="10" d="M346.518,442.549
				c-27.896-7.001-104.297-20.935-203.518,3.7"/>
			<g>
				<polygon points="343.032,434.016 344.105,441.992 339.109,448.3 358,445.808 				"/>
			</g>
		</g>
		<g>
			<path fill="none" stroke="#000000" stroke-width="2" stroke-miterlimit="10" d="M477.878,301.083
				C503.52,290.787,571.68,270.696,652,306"/>
			<g>
				<polygon points="486.052,305.677 480.18,300.175 480.065,292.129 467,306 				"/>
			</g>
		</g>
	</g>
	<g id="sample_00000024700628124280672720000007124730904683673474_">
		<g>
			<path fill="none" stroke="#000000" stroke-width="2" stroke-miterlimit="10" d="M498.76,214.727
				c26.906-4.233,94.675-12.43,147.24,2.039"/>
			<g>
				<polygon points="505.544,221.15 501.21,214.37 503.081,206.543 487,216.765 				"/>
			</g>
		</g>
		<g>
			<path fill="none" stroke="#000000" stroke-width="2" stroke-miterlimit="10" d="M274.123,326.294
				C249.324,310.988,181.978,278.811,120,333"/>
			<g>
				<polygon points="273.484,317.11 272.002,325.019 265.28,329.443 284,333 				"/>
			</g>
		</g>
		<g>
			<path fill="none" stroke="#000000" stroke-width="2" stroke-miterlimit="10" d="M282.479,380.356
				c-24.584-11.632-90.282-34.165-176.147,3.579"/>
			<g>
				<polygon points="280.889,371.289 280.237,379.31 274.012,384.409 293,386 				"/>
			</g>
		</g>
		<g>
			<path fill="none" stroke="#000000" stroke-width="2" stroke-miterlimit="10" d="M473.55,480.414
				C499.581,467.807,568.628,441.56,622,486"/>
			<g>
				<polygon points="481.994,484.477 475.787,479.356 475.164,471.333 463,486 				"/>
			</g>
		</g>
		<g>
			<path fill="none" stroke="#000000" stroke-width="2" stroke-miterlimit="10" d="M360.381,334.398
				c39.685-11.772,176.169-45.668,298.1,2.505"/>
			<g>
				<polygon points="367.954,339.958 362.782,333.793 363.629,325.791 349,338 				"/>
			</g>
		</g>
	</g>
</g>
<style>
#g-blonde-Artboard_1-interactions-img rect, #g-blonde-Artboard_1-interactions-img circle, #g-blonde-Artboard_1-interactions-img path, #g-blonde-Artboard_1-interactions-img line, #g-blonde-Artboard_1-interactions-img polyline, #g-blonde-Artboard_1-interactions-img polygon { vector-effect: non-scaling-stroke; }
</style>
</svg>

